Gone 2012 RC 720P BRRip READNFO x264-HOPE.[PublicHD]
 
http://www.imdb.com/title/tt1838544/

INFO <> INFO <> INFO <> INFO


Information

 Format : Matroska
 Format version : Version 2
 File size : 1.75 GiB
 Duration : 1h 34mn
 Overall bit rate : 2 641 Kbps
 Encoded date : UTC 2012-04-06 12:04:40
 Writing application : mkvmerge v5.4.0 ('Piper' built on Mar 10 2012 13:34:39
 Writing library : libebml v1.2.3 + libmatroska v1.3.0
 IMDB: http://www.imdb.com/title/tt1838544/

Video Information
 ID : 1
 Format : AVC
 Format/Info : Advanced Video Codec
 Format profile : High@L4.2
 Format settings, CABAC : Yes
 Format settings, ReFrames : 4 frames
 Codec ID : V_MPEG4/ISO/AVC
 Duration : 1h 34mn
 Bit rate : 2 512 Kbps
 Width : 1 280 pixels
 Height : 536 pixels
 Display aspect ratio : 2.40:1
 Frame rate : 24.000 fps
 Color space : YUV
 Chroma subsampling : 4:2:0
 Bit depth : 8 bits
 Scan type : Progressive
 Bits/(Pixel*Frame) : 0.153
 Stream size : 1.63 GiB (93%)
 Writing library : x264 core 122 r2184 5c85e0a

Audio Information
 ID : 2
 Format : MPEG Audio
 Format version : Version 1
 Format profile : Layer 3
 Mode : Joint stereo
 Codec ID : A_MPEG/L3
 Codec ID/Hint : MP3
 Duration : 1h 34mn
 Bit rate mode : Constant
 Bit rate : 128 Kbps
 Channel(s) : 2 channels
 Sampling rate : 44.1 KHz
 Compression mode : Lossy
 Stream size : 86.7 MiB (5%)

 
http://www.imagezon3.com/images/vTHLP.jpg 
http://www.imagezon3.com/images/ezX2U.jpg 
http://www.imagezon3.com/images/dCGvW.jpg 
http://image.bayimg.com/canpeaadn.jpg